<svg width="30" height="30" viewBox="0 0 30 30" fill="none" xmlns="http://www.w3.org/2000/svg">
<!-- header -->
<g id="ball">
<path d="M15 0.833252C12.1981 0.833252 9.45912 1.66411 7.12942 3.22077C4.79973 4.77742 2.98395 6.98995 1.91171 9.57857C0.839466 12.1672 0.558919 15.0156 1.10554 17.7637C1.65217 20.5118 3.00141 23.036 4.98266 25.0173C6.9639 26.9985 9.48816 28.3478 12.2362 28.8944C14.9843 29.441 17.8327 29.1605 20.4214 28.0882C23.01 27.016 25.2225 25.2002 26.7792 22.8705C28.3358 20.5408 29.1667 17.8018 29.1667 14.9999C29.1667 13.1395 28.8002 11.2973 28.0883 9.57857C27.3764 7.85979 26.3328 6.29807 25.0173 4.98257C23.7019 3.66708 22.1401 2.62357 20.4214 1.91163C18.7026 1.19968 16.8604 0.833252 15 0.833252ZM15 3.66659C17.9109 3.66542 20.7088 4.79274 22.8058 6.81158C20.6412 8.0812 18.3474 9.1165 15.9633 9.89992C14.7769 7.85542 13.4166 5.91687 11.8975 4.10575C12.9061 3.81533 13.9504 3.66751 15 3.66659ZM9.1775 5.29575C10.6617 6.99363 11.9938 8.81872 13.1583 10.7499C10.3776 11.4404 7.52355 11.7924 4.65833 11.7983H4.14833C4.95187 9.07774 6.74641 6.75748 9.1775 5.29575ZM6.5 22.5224C4.65657 20.4523 3.64695 17.7718 3.66667 14.9999V14.5891H4.63C7.98378 14.5591 11.3186 14.0827 14.5467 13.1724C15 14.0366 15.425 14.9291 15.8358 15.8499C13.6279 16.6283 11.5717 17.7834 9.75834 19.2641L9.33333 19.6041C8.32342 20.5111 7.37676 21.4861 6.5 22.5224ZM15 26.3333C12.742 26.3383 10.5349 25.6618 8.6675 24.3924C9.35719 23.6013 10.0953 22.8538 10.8775 22.1541L11.3308 21.7716C13.007 20.3619 14.9277 19.2718 16.9975 18.5558C17.8494 20.8592 18.5127 23.2281 18.9808 25.6391C17.7056 26.1047 16.3576 26.3398 15 26.3333ZM21.5592 24.2224C21.0957 22.0784 20.4899 19.9676 19.7458 17.9041H20.2275C20.2833 17.8903 20.3417 17.8903 20.3975 17.9041H21.375C22.8658 17.9084 24.3455 18.1621 25.7525 18.6549C24.9795 20.9079 23.5112 22.8574 21.5592 24.2224ZM21.375 14.9999H20.4967C20.3132 14.9768 20.1276 14.9768 19.9442 14.9999C19.5591 15.0236 19.1759 15.0709 18.7967 15.1416H18.655C18.2442 14.1924 17.8192 13.2716 17.3517 12.3083C19.8884 11.4371 22.3247 10.2973 24.6192 8.90825C25.7574 10.7349 26.3519 12.8478 26.3333 14.9999V15.7224C24.7278 15.2269 23.0552 14.9832 21.375 14.9999Z" fill="white"/>
</g>

<g id="facebook">
<path d="M12.4201 5.53663H15.0834V1.03163C13.7939 0.897536 12.4982 0.831333 11.2018 0.833294C7.34842 0.833294 4.71342 3.18496 4.71342 7.49163V11.2033H0.364258V16.2466H4.71342V29.1666H9.92676V16.2466H14.2618L14.9134 11.2033H9.92676V7.98746C9.92676 6.49996 10.3234 5.53663 12.4201 5.53663Z" fill="white"/>

</g>

<g id="in">
<path d="M22.7917 10.7486C21.5236 10.7484 20.2751 11.0623 19.1579 11.6623C19.0559 11.3936 18.8746 11.1623 18.638 10.9991C18.4014 10.8359 18.1208 10.7485 17.8334 10.7486H12.1667C11.791 10.7486 11.4306 10.8978 11.165 11.1635C10.8993 11.4292 10.75 11.7895 10.75 12.1653V29.1653C10.75 29.541 10.8993 29.9013 11.165 30.167C11.4306 30.4327 11.791 30.5819 12.1667 30.5819H17.8334C18.2091 30.5819 18.5694 30.4327 18.8351 30.167C19.1008 29.9013 19.25 29.541 19.25 29.1653V21.3736C19.25 20.9979 19.3993 20.6375 19.665 20.3719C19.9306 20.1062 20.291 19.9569 20.6667 19.9569C21.0424 19.9569 21.4027 20.1062 21.6684 20.3719C21.9341 20.6375 22.0834 20.9979 22.0834 21.3736V29.1653C22.0834 29.541 22.2326 29.9013 22.4983 30.167C22.764 30.4327 23.1243 30.5819 23.5 30.5819H29.1667C29.5424 30.5819 29.9027 30.4327 30.1684 30.167C30.4341 29.9013 30.5834 29.541 30.5834 29.1653V18.5403C30.5807 16.4746 29.759 14.4943 28.2983 13.0336C26.8377 11.573 24.8574 10.7512 22.7917 10.7486ZM27.75 27.7486H24.9167V21.3736C24.9167 20.2464 24.4689 19.1654 23.6719 18.3684C22.8749 17.5714 21.7939 17.1236 20.6667 17.1236C19.5395 17.1236 18.4585 17.5714 17.6615 18.3684C16.8645 19.1654 16.4167 20.2464 16.4167 21.3736V27.7486H13.5834V13.5819H16.4167V14.5778C16.4166 14.8715 16.5077 15.1579 16.6774 15.3975C16.8472 15.6371 17.0872 15.818 17.3643 15.9152C17.6413 16.0125 17.9418 16.0212 18.224 15.9402C18.5063 15.8593 18.7564 15.6926 18.9398 15.4633C19.5758 14.6559 20.448 14.0673 21.4346 13.7796C22.4213 13.4919 23.4732 13.5195 24.4434 13.8585C25.4137 14.1975 26.2538 14.8311 26.8466 15.6706C27.4394 16.5102 27.7552 17.5139 27.75 18.5417V27.7486ZM7.91669 10.7486H2.25002C1.8743 10.7486 1.51397 10.8978 1.24829 11.1635C0.982612 11.4292 0.833357 11.7895 0.833357 12.1653V29.1653C0.833357 29.541 0.982612 29.9013 1.24829 30.167C1.51397 30.4327 1.8743 30.5819 2.25002 30.5819H7.91669C8.29241 30.5819 8.65275 30.4327 8.91842 30.167C9.1841 29.9013 9.33336 29.541 9.33336 29.1653V12.1653C9.33336 11.7895 9.1841 11.4292 8.91842 11.1635C8.65275 10.8978 8.29241 10.7486 7.91669 10.7486ZM6.50002 27.7486H3.66669V13.5819H6.50002V27.7486ZM5.10461 0.184503C4.48424 0.146706 3.86266 0.235567 3.27773 0.445677C2.69281 0.655788 2.15676 0.98275 1.70224 1.40666C1.24771 1.83056 0.884224 2.34254 0.633899 2.91142C0.383574 3.48031 0.251652 4.09418 0.246165 4.71568C0.240679 5.33718 0.361743 5.95329 0.601986 6.5265C0.842229 7.09971 1.19662 7.61803 1.64359 8.04989C2.09056 8.48176 2.62075 8.81813 3.20188 9.03853C3.78301 9.25894 4.40292 9.35876 5.02386 9.33192H5.06352C5.68424 9.36738 6.30569 9.27609 6.88999 9.06362C7.47429 8.85114 8.00921 8.52193 8.46216 8.09603C8.91512 7.67014 9.27662 7.15648 9.52463 6.58636C9.77265 6.01624 9.902 5.40159 9.90479 4.77986C9.90759 4.15814 9.78377 3.54235 9.54088 2.97002C9.29799 2.3977 8.94112 1.88081 8.49201 1.45087C8.0429 1.02092 7.51095 0.686916 6.92859 0.4692C6.34622 0.251485 5.72562 0.154618 5.10461 0.184503ZM5.06352 6.49859H5.02386C4.77883 6.5285 4.53025 6.50567 4.29477 6.43163C4.0593 6.35758 3.84238 6.23404 3.65857 6.06928C3.47476 5.90452 3.32831 5.70236 3.22905 5.47636C3.12978 5.25036 3.07999 5.00574 3.08302 4.75892C3.08302 3.70067 3.87636 3.01784 5.10461 3.01784C5.35197 2.98528 5.60344 3.00605 5.84211 3.07876C6.08078 3.15146 6.30113 3.27441 6.48834 3.43934C6.67555 3.60427 6.82528 3.80736 6.92748 4.03497C7.02968 4.26258 7.08198 4.50942 7.08086 4.75892C7.08086 5.81575 6.28752 6.49859 5.06211 6.49859H5.06352Z" fill="white"/>

</g>

<g id="inst">
<path d="M24.565 7.73492C24.2288 7.73492 23.9001 7.83462 23.6205 8.02142C23.341 8.20822 23.1231 8.47372 22.9944 8.78436C22.8657 9.09499 22.8321 9.4368 22.8977 9.76657C22.9633 10.0963 23.1252 10.3993 23.3629 10.637C23.6007 10.8748 23.9036 11.0367 24.2334 11.1023C24.5631 11.1678 24.9049 11.1342 25.2156 11.0055C25.5262 10.8768 25.7917 10.659 25.9785 10.3794C26.1653 10.0998 26.265 9.77115 26.265 9.43492C26.265 8.98405 26.0859 8.55165 25.7671 8.23284C25.4483 7.91403 25.0159 7.73492 24.565 7.73492ZM31.0817 11.1633C31.0541 9.98784 30.834 8.82491 30.43 7.72075C30.0698 6.77602 29.5092 5.92056 28.7867 5.21325C28.0852 4.48711 27.2277 3.93 26.2792 3.58409C25.1779 3.16781 24.0137 2.94263 22.8367 2.91825C21.335 2.83325 20.8533 2.83325 17 2.83325C13.1467 2.83325 12.665 2.83325 11.1633 2.91825C9.98631 2.94263 8.82208 3.16781 7.72084 3.58409C6.77405 3.9335 5.91733 4.49013 5.21334 5.21325C4.4872 5.91475 3.93009 6.77221 3.58418 7.72075C3.1679 8.82199 2.94272 9.98622 2.91834 11.1633C2.83334 12.6649 2.83334 13.1466 2.83334 16.9999C2.83334 20.8533 2.83334 21.3349 2.91834 22.8366C2.94272 24.0136 3.1679 25.1778 3.58418 26.2791C3.93009 27.2276 4.4872 28.0851 5.21334 28.7866C5.91733 29.5097 6.77405 30.0663 7.72084 30.4158C8.82208 30.832 9.98631 31.0572 11.1633 31.0816C12.665 31.1666 13.1467 31.1666 17 31.1666C20.8533 31.1666 21.335 31.1666 22.8367 31.0816C24.0137 31.0572 25.1779 30.832 26.2792 30.4158C27.2277 30.0698 28.0852 29.5127 28.7867 28.7866C29.5124 28.0819 30.0735 27.2257 30.43 26.2791C30.834 25.1749 31.0541 24.012 31.0817 22.8366C31.0817 21.3349 31.1667 20.8533 31.1667 16.9999C31.1667 13.1466 31.1667 12.6649 31.0817 11.1633ZM28.5317 22.6666C28.5214 23.5658 28.3585 24.4568 28.05 25.3016C27.8238 25.9181 27.4605 26.4752 26.9875 26.9308C26.528 27.399 25.9721 27.7615 25.3583 27.9933C24.5136 28.3017 23.6226 28.4646 22.7233 28.4749C21.3067 28.5458 20.7825 28.5599 17.0567 28.5599C13.3308 28.5599 12.8067 28.5599 11.39 28.4749C10.4563 28.4924 9.52652 28.3486 8.64168 28.0499C8.05487 27.8064 7.52443 27.4447 7.08334 26.9874C6.61314 26.5323 6.25437 25.9748 6.03501 25.3583C5.68914 24.5014 5.49731 23.5902 5.46834 22.6666C5.46834 21.2499 5.38334 20.7258 5.38334 16.9999C5.38334 13.2741 5.38334 12.7499 5.46834 11.3333C5.47469 10.4139 5.64252 9.50284 5.96418 8.64159C6.21358 8.04363 6.59639 7.5106 7.08334 7.08325C7.51375 6.59616 8.04567 6.2093 8.64168 5.94992C9.50521 5.63831 10.4153 5.47545 11.3333 5.46825C12.75 5.46825 13.2742 5.38325 17 5.38325C20.7258 5.38325 21.25 5.38325 22.6667 5.46825C23.5659 5.47857 24.4569 5.64143 25.3017 5.94992C25.9455 6.18884 26.5233 6.57729 26.9875 7.08325C27.4518 7.51842 27.8145 8.05046 28.05 8.64159C28.3649 9.50424 28.5278 10.4149 28.5317 11.3333C28.6025 12.7499 28.6167 13.2741 28.6167 16.9999C28.6167 20.7258 28.6025 21.2499 28.5317 22.6666ZM17 9.73242C15.5632 9.73522 14.1595 10.1638 12.9663 10.9641C11.773 11.7644 10.8437 12.9004 10.2958 14.2286C9.74794 15.5568 9.60604 17.0176 9.88805 18.4264C10.1701 19.8352 10.8633 21.1288 11.8803 22.1438C12.8972 23.1588 14.1922 23.8495 15.6016 24.1288C17.0109 24.4081 18.4715 24.2633 19.7986 23.7128C21.1257 23.1624 22.2599 22.2309 23.0579 21.0361C23.8558 19.8412 24.2817 18.4367 24.2817 16.9999C24.2836 16.0438 24.0964 15.0968 23.7309 14.2133C23.3655 13.3298 22.829 12.5272 22.1522 11.8518C21.4755 11.1764 20.6719 10.6415 19.7877 10.2777C18.9035 9.91401 17.9561 9.72868 17 9.73242ZM17 21.7174C16.067 21.7174 15.1549 21.4407 14.3791 20.9224C13.6033 20.404 12.9987 19.6672 12.6416 18.8052C12.2846 17.9432 12.1911 16.9947 12.3732 16.0796C12.5552 15.1645 13.0045 14.3239 13.6642 13.6641C14.324 13.0044 15.1646 12.5551 16.0797 12.3731C16.9948 12.191 17.9433 12.2845 18.8053 12.6415C19.6673 12.9986 20.4041 13.6032 20.9225 14.379C21.4408 15.1548 21.7175 16.0669 21.7175 16.9999C21.7175 17.6194 21.5955 18.2329 21.3584 18.8052C21.1213 19.3776 20.7738 19.8976 20.3358 20.3357C19.8977 20.7738 19.3777 21.1212 18.8053 21.3583C18.233 21.5954 17.6195 21.7174 17 21.7174Z" fill="white"/>

</g>

<g id="letter">
<path d="M17 0H3C2.20435 0 1.44129 0.316071 0.87868 0.87868C0.316071 1.44129 0 2.20435 0 3V13C0 13.7956 0.316071 14.5587 0.87868 15.1213C1.44129 15.6839 2.20435 16 3 16H17C17.7956 16 18.5587 15.6839 19.1213 15.1213C19.6839 14.5587 20 13.7956 20 13V3C20 2.20435 19.6839 1.44129 19.1213 0.87868C18.5587 0.316071 17.7956 0 17 0ZM16.59 2L10.71 7.88C10.617 7.97373 10.5064 8.04812 10.3846 8.09889C10.2627 8.14966 10.132 8.1758 10 8.1758C9.86799 8.1758 9.73728 8.14966 9.61542 8.09889C9.49356 8.04812 9.38296 7.97373 9.29 7.88L3.41 2H16.59ZM18 13C18 13.2652 17.8946 13.5196 17.7071 13.7071C17.5196 13.8946 17.2652 14 17 14H3C2.73478 14 2.48043 13.8946 2.29289 13.7071C2.10536 13.5196 2 13.2652 2 13V3.41L7.88 9.29C8.4425 9.8518 9.205 10.1674 10 10.1674C10.795 10.1674 11.5575 9.8518 12.12 9.29L18 3.41V13Z" fill="white"/>

</g>

<g id="skype">
<path d="M20.4484 15.7352C19.8807 15.3707 19.2646 15.0879 18.6181 14.8951C18.2214 14.7747 17.7822 14.6571 17.3289 14.5452C16.9322 14.4347 16.4619 14.3213 15.8811 14.1938C15.1879 14.0485 14.5076 13.8476 13.8467 13.5932C13.5061 13.4608 13.2055 13.2427 12.9741 12.9599C12.8047 12.7285 12.7242 12.4439 12.7474 12.1581C12.7469 11.8516 12.8491 11.5538 13.0378 11.3123C13.3019 11.003 13.6445 10.7706 14.0295 10.6394C14.6771 10.4169 15.3595 10.3132 16.044 10.3334C16.5736 10.3246 17.1016 10.3943 17.6108 10.5402C17.9485 10.6353 18.2666 10.7897 18.5501 10.9964C18.7334 11.1272 18.8897 11.2922 19.0105 11.4823C19.0979 11.6474 19.2172 11.7936 19.3614 11.9124C19.5056 12.0312 19.6718 12.1203 19.8506 12.1746C20.0294 12.2289 20.2171 12.2473 20.403 12.2287C20.5889 12.2102 20.7693 12.155 20.9338 12.0665C21.0983 11.9779 21.2437 11.8577 21.3615 11.7127C21.4794 11.5678 21.5674 11.4009 21.6205 11.2218C21.6736 11.0427 21.6908 10.8548 21.671 10.6691C21.6512 10.4833 21.5949 10.3032 21.5052 10.1393C21.2065 9.61094 20.803 9.14911 20.3195 8.78216C19.7608 8.35301 19.1272 8.03162 18.4509 7.83441C17.6702 7.60377 16.8594 7.49108 16.0454 7.50008C15.0107 7.47781 13.9806 7.64588 13.0066 7.99591C12.1258 8.31657 11.352 8.8769 10.7726 9.61374C10.2176 10.3464 9.91709 11.2403 9.9169 12.1595C9.89392 13.0746 10.1838 13.9701 10.7386 14.6982C11.2742 15.3727 11.9763 15.8961 12.7757 16.2168C13.3798 16.4493 13.9983 16.6423 14.6273 16.7948C14.6386 16.7991 14.6471 16.809 14.6585 16.8118C14.9305 16.894 15.364 17.0031 15.9901 17.1377C16.2352 17.1915 16.4647 17.2496 16.6942 17.3077C16.7169 17.3133 16.7495 17.3204 16.7707 17.3275L16.7962 17.3303C17.1476 17.421 17.4861 17.5131 17.7964 17.608C18.1776 17.7195 18.5413 17.8836 18.8773 18.0953C19.0868 18.2269 19.2629 18.4054 19.3916 18.6167C19.5161 18.8744 19.5736 19.1595 19.5587 19.4454C19.5783 19.8155 19.4714 20.1812 19.2556 20.4824C18.964 20.8618 18.5697 21.1494 18.1194 21.3112C17.4482 21.5702 16.7318 21.6916 16.0128 21.6682C15.1813 21.7001 14.3542 21.533 13.6002 21.1808C13.252 20.9954 12.9529 20.7298 12.7276 20.4059C12.5694 20.1987 12.4705 19.9524 12.4414 19.6933C12.4414 19.3176 12.2921 18.9573 12.0265 18.6916C11.7608 18.4259 11.4005 18.2767 11.0247 18.2767C10.649 18.2767 10.2887 18.4259 10.023 18.6916C9.75732 18.9573 9.60806 19.3176 9.60806 19.6933C9.63142 20.5293 9.90588 21.3389 10.3957 22.0167C10.8853 22.7217 11.5374 23.2984 12.2969 23.6982C13.4525 24.2621 14.7275 24.5377 16.0128 24.5015C17.105 24.5279 18.1913 24.3327 19.206 23.9277C20.1492 23.5658 20.9682 22.9397 21.5647 22.1243C22.1318 21.33 22.4225 20.3714 22.3921 19.3958C22.4052 18.6396 22.2222 17.8928 21.8608 17.2283C21.5118 16.6285 21.0283 16.1178 20.4484 15.7366V15.7352ZM30.6782 18.3957C31.0601 16.0675 30.8823 13.6818 30.1594 11.436C29.4366 9.19016 28.1894 7.14869 26.5211 5.48041C24.8529 3.81214 22.8114 2.565 20.5656 1.84214C18.3197 1.11928 15.9341 0.941466 13.6059 1.32341C11.8869 0.499224 9.95452 0.228941 8.07539 0.549872C6.19626 0.870804 4.46308 1.76712 3.11509 3.11511C1.76711 4.46309 0.870788 6.19627 0.549857 8.0754C0.228925 9.95453 0.499208 11.8869 1.3234 13.6059C0.941767 15.9338 1.11976 18.3192 1.84266 20.5647C2.56556 22.8102 3.81261 24.8514 5.48068 26.5195C7.14875 28.1875 9.18993 29.4346 11.4354 30.1575C13.681 30.8804 16.0663 31.0584 18.3942 30.6767C20.1132 31.5009 22.0456 31.7712 23.9247 31.4503C25.8039 31.1294 27.5371 30.233 28.885 28.885C30.233 27.5371 31.1293 25.8039 31.4503 23.9248C31.7712 22.0456 31.5009 20.1132 30.6767 18.3942L30.6782 18.3957ZM22.3751 28.7501C21.3001 28.7496 20.2427 28.4777 19.3009 27.9596C19.0087 27.7986 18.6692 27.7454 18.3418 27.8094C16.5959 28.1576 14.7944 28.114 13.0674 27.6817C11.3403 27.2494 9.73074 26.4391 8.35477 25.3094C6.97879 24.1797 5.87071 22.7586 5.11045 21.1488C4.35019 19.5389 3.95672 17.7804 3.9584 16.0001C3.95986 15.2133 4.03766 14.4286 4.19073 13.6569C4.25482 13.3295 4.20166 12.99 4.04056 12.6978C3.37538 11.488 3.12093 10.0949 3.31549 8.72803C3.51005 7.36116 4.14309 6.0944 5.11944 5.11821C6.09578 4.14203 7.36265 3.50919 8.72955 3.31486C10.0965 3.12052 11.4895 3.37519 12.6992 4.04058C12.9917 4.20236 13.3319 4.25555 13.6597 4.19075C15.4056 3.84276 17.2069 3.88656 18.9338 4.319C20.6606 4.75143 22.27 5.56172 23.6458 6.69142C25.0216 7.82113 26.1296 9.24208 26.8897 10.8518C27.6499 12.4615 28.0434 14.2199 28.0417 16.0001C28.0403 16.7868 27.9625 17.5715 27.8094 18.3432C27.7453 18.6707 27.7985 19.0102 27.9596 19.3023C28.494 20.2729 28.7661 21.366 28.7492 22.4738C28.7323 23.5816 28.4269 24.6659 27.8631 25.6197C27.2993 26.5735 26.4967 27.3638 25.5343 27.9128C24.5719 28.4617 23.483 28.7503 22.3751 28.7501Z" fill="white"/>

</g>

<g id="twit">
<path d="M31.5706 2.59573C31.5706 2.34568 31.5044 2.1001 31.3787 1.88393C31.253 1.66776 31.0723 1.48871 30.8551 1.36496C30.6378 1.24121 30.3916 1.17718 30.1416 1.17936C29.8915 1.18154 29.6465 1.24987 29.4315 1.37739C28.6019 1.87154 27.7087 2.24999 26.7766 2.50223C25.4463 1.36078 23.7497 0.736224 21.9968 0.742726C20.074 0.74503 18.2273 1.49445 16.8467 2.83276C15.4661 4.17107 14.6596 5.99352 14.5975 7.91531C10.8063 7.31085 7.37009 5.33206 4.94437 2.35631C4.79821 2.17919 4.61164 2.03976 4.40036 1.94978C4.18908 1.85979 3.95927 1.82188 3.73029 1.83923C3.50135 1.85817 3.28047 1.93257 3.08672 2.05597C2.89296 2.17938 2.73216 2.3481 2.6182 2.54756C2.03386 3.56741 1.69828 4.71071 1.63871 5.8846C1.57914 7.05848 1.79727 8.22987 2.27537 9.30364L2.27254 9.30506C2.05718 9.43739 1.87945 9.62285 1.75641 9.84363C1.63336 10.0644 1.56913 10.3131 1.56987 10.5659C1.5676 10.7738 1.58038 10.9817 1.60812 11.1878C1.75279 12.97 2.5426 14.6383 3.82945 15.8798C3.74213 16.0463 3.68888 16.2285 3.67283 16.4158C3.65677 16.6031 3.67823 16.7917 3.73595 16.9706C4.29692 18.719 5.49015 20.1952 7.08212 21.1101C5.46453 21.7355 3.71796 21.9535 1.99629 21.7448C1.67778 21.7052 1.35526 21.7749 1.08156 21.9425C0.80785 22.1102 0.599179 22.3658 0.489718 22.6675C0.380256 22.9692 0.376494 23.2992 0.479048 23.6033C0.581601 23.9074 0.78439 24.1677 1.0542 24.3416C4.01533 26.2484 7.46303 27.2621 10.985 27.2613C14.979 27.3063 18.8758 26.0301 22.0694 23.6312C25.263 21.2324 27.5743 17.8454 28.6438 13.9971C29.1438 12.3208 29.3991 10.5811 29.4017 8.83189L29.4003 8.54856C30.14 7.7507 30.713 6.81318 31.0857 5.79098C31.4584 4.76878 31.6232 3.68247 31.5706 2.59573ZM26.8871 7.14606C26.6529 7.42262 26.5342 7.77877 26.5556 8.14056C26.5698 8.37431 26.5684 8.60948 26.5684 8.83189C26.5654 10.3097 26.3487 11.7794 25.9252 13.1952C25.0521 16.47 23.1052 19.357 20.3964 21.3939C17.6875 23.4308 14.3735 24.4997 10.985 24.4294C9.76831 24.4296 8.55579 24.2865 7.37254 24.003C8.88173 23.5163 10.2928 22.7661 11.5404 21.7873C11.7704 21.6064 11.9388 21.3588 12.0224 21.0783C12.106 20.7979 12.1007 20.4984 12.0072 20.2211C11.9138 19.9438 11.7367 19.7023 11.5004 19.5297C11.2641 19.357 10.9801 19.2618 10.6875 19.2571C9.5099 19.2387 8.3854 18.7638 7.55104 17.9326C7.76259 17.8929 7.97273 17.8433 8.18145 17.7838C8.48749 17.6968 8.75533 17.5093 8.94183 17.2516C9.12833 16.9938 9.22263 16.6807 9.20954 16.3629C9.19646 16.045 9.07674 15.7407 8.86968 15.4992C8.66262 15.2576 8.38027 15.0928 8.06812 15.0312C7.38457 14.8962 6.74136 14.6053 6.18853 14.1813C5.63569 13.7572 5.18812 13.2113 4.88062 12.5861C5.13669 12.6211 5.39439 12.6428 5.6527 12.6512C5.95967 12.6563 6.26027 12.5634 6.51091 12.3861C6.76156 12.2089 6.94922 11.9563 7.0467 11.6652C7.14028 11.3716 7.13558 11.0556 7.03332 10.7649C6.93106 10.4742 6.73681 10.2248 6.48004 10.0545C5.85661 9.63948 5.34586 9.07633 4.99355 8.41546C4.64123 7.75458 4.45835 7.01664 4.46129 6.26773C4.46129 6.17423 4.46412 6.07931 4.46979 5.98723C7.64519 8.94895 11.7641 10.6948 16.1006 10.9172C16.3196 10.9255 16.5376 10.8839 16.7381 10.7956C16.9386 10.7072 17.1164 10.5744 17.258 10.4072C17.3983 10.239 17.4977 10.0405 17.5483 9.82741C17.599 9.61429 17.5995 9.39233 17.5499 9.17898C17.4688 8.84069 17.4274 8.4941 17.4266 8.14623C17.4281 6.9346 17.9101 5.77303 18.7668 4.91629C19.6236 4.05954 20.7852 3.57756 21.9968 3.57606C22.6203 3.57422 23.2375 3.70168 23.8093 3.95039C24.3811 4.1991 24.8951 4.56366 25.3189 5.02106C25.4823 5.1969 25.6879 5.328 25.9163 5.4019C26.1447 5.47579 26.3882 5.49002 26.6236 5.44323C27.2056 5.3301 27.7792 5.1777 28.3406 4.98706C27.9579 5.77023 27.4687 6.49676 26.8871 7.14606Z" fill="white"/>

</g>

<g id="pods">
<path d="M18 10.18V8C18 5.87827 17.1571 3.84344 15.6569 2.34315C14.1566 0.842855 12.1217 0 10 0C7.87827 0 5.84344 0.842855 4.34315 2.34315C2.84285 3.84344 2 5.87827 2 8V10.18C1.41645 10.3863 0.910998 10.7681 0.552938 11.2729C0.194879 11.7778 0.00173951 12.3811 0 13V15C0 15.7956 0.316071 16.5587 0.87868 17.1213C1.44129 17.6839 2.20435 18 3 18H6C6.26522 18 6.51957 17.8946 6.70711 17.7071C6.89464 17.5196 7 17.2652 7 17V11C7 10.7348 6.89464 10.4804 6.70711 10.2929C6.51957 10.1054 6.26522 10 6 10H4V8C4 6.4087 4.63214 4.88258 5.75736 3.75736C6.88258 2.63214 8.4087 2 10 2C11.5913 2 13.1174 2.63214 14.2426 3.75736C15.3679 4.88258 16 6.4087 16 8V10H14C13.7348 10 13.4804 10.1054 13.2929 10.2929C13.1054 10.4804 13 10.7348 13 11V17C13 17.2652 13.1054 17.5196 13.2929 17.7071C13.4804 17.8946 13.7348 18 14 18H17C17.7956 18 18.5587 17.6839 19.1213 17.1213C19.6839 16.5587 20 15.7956 20 15V13C19.9983 12.3811 19.8051 11.7778 19.4471 11.2729C19.089 10.7681 18.5835 10.3863 18 10.18ZM5 12V16H3C2.73478 16 2.48043 15.8946 2.29289 15.7071C2.10536 15.5196 2 15.2652 2 15V13C2 12.7348 2.10536 12.4804 2.29289 12.2929C2.48043 12.1054 2.73478 12 3 12H5ZM18 15C18 15.2652 17.8946 15.5196 17.7071 15.7071C17.5196 15.8946 17.2652 16 17 16H15V12H17C17.2652 12 17.5196 12.1054 17.7071 12.2929C17.8946 12.4804 18 12.7348 18 13V15Z" fill="white"/>
</g>

<!-- testemonia -->
<g id="testemonia">
<path d="M38.1638 50.3315C36.3055 50.3315 34.5222 50.6149 32.7472 50.8732C33.3222 48.9399 33.9138 46.9732 34.8638 45.2065C35.8138 42.6399 37.2972 40.4149 38.7722 38.1732C40.0055 35.7482 42.1805 34.1065 43.7805 32.0315C45.4555 30.0149 47.7388 28.6732 49.5472 26.9982C51.3222 25.2482 53.6472 24.3732 55.4972 23.1399C57.4305 22.0315 59.1138 20.8065 60.9138 20.2232L65.4055 18.3732L69.3555 16.7315L65.3138 0.581543L60.3388 1.78154C58.7472 2.18154 56.8055 2.64821 54.5972 3.20654C52.3388 3.62321 49.9305 4.76487 47.2472 5.80654C44.5972 6.98987 41.5305 7.78988 38.6805 9.68988C35.8138 11.5065 32.5055 13.0232 29.5888 15.4565C26.7638 17.9649 23.3555 20.1399 20.8388 23.3315C18.0888 26.3149 15.3722 29.4482 13.2638 33.0149C10.8222 36.4149 9.16382 40.1482 7.41382 43.8399C5.83048 47.5315 4.55549 51.3065 3.51382 54.9732C1.53882 62.3232 0.655485 69.3065 0.313818 75.2815C0.0304847 81.2649 0.197151 86.2399 0.547151 89.8399C0.672151 91.5399 0.905485 93.1899 1.07215 94.3315L1.28048 95.7315L1.49715 95.6815C2.97933 102.605 6.39135 108.968 11.3385 114.033C16.2857 119.098 22.5658 122.66 29.4525 124.305C36.3391 125.95 43.5509 125.612 50.2534 123.33C56.956 121.048 62.8755 116.915 67.3272 111.409C71.7789 105.903 74.5809 99.2492 75.409 92.2173C76.2371 85.1855 75.0574 78.0628 72.0066 71.6734C68.9557 65.2839 64.1583 59.8887 58.1693 56.1119C52.1802 52.3351 45.2443 50.3311 38.1638 50.3315ZM129.83 50.3315C127.972 50.3315 126.189 50.6149 124.414 50.8732C124.989 48.9399 125.58 46.9732 126.53 45.2065C127.48 42.6399 128.964 40.4149 130.439 38.1732C131.672 35.7482 133.847 34.1065 135.447 32.0315C137.122 30.0149 139.405 28.6732 141.214 26.9982C142.989 25.2482 145.314 24.3732 147.164 23.1399C149.097 22.0315 150.78 20.8065 152.58 20.2232L157.072 18.3732L161.022 16.7315L156.98 0.581543L152.005 1.78154C150.414 2.18154 148.472 2.64821 146.264 3.20654C144.005 3.62321 141.597 4.76487 138.914 5.80654C136.272 6.99821 133.197 7.78988 130.347 9.69821C127.48 11.5149 124.172 13.0315 121.256 15.4649C118.43 17.9732 115.022 20.1482 112.505 23.3315C109.755 26.3149 107.039 29.4482 104.93 33.0149C102.489 36.4149 100.83 40.1482 99.0805 43.8399C97.4972 47.5315 96.2222 51.3065 95.1805 54.9732C93.2055 62.3232 92.3222 69.3065 91.9805 75.2815C91.6972 81.2649 91.8638 86.2399 92.2138 89.8399C92.3388 91.5399 92.5722 93.1899 92.7388 94.3315L92.9472 95.7315L93.1638 95.6815C94.646 102.605 98.058 108.968 103.005 114.033C107.952 119.098 114.233 122.66 121.119 124.305C128.006 125.95 135.218 125.612 141.92 123.33C148.623 121.048 154.542 116.915 158.994 111.409C163.446 105.903 166.248 99.2492 167.076 92.2173C167.904 85.1855 166.724 78.0628 163.673 71.6734C160.622 65.2839 155.825 59.8887 149.836 56.1119C143.847 52.3351 136.911 50.3311 129.83 50.3315Z" fill="#333333" fill-opacity="0.1"/>

</g>

<!-- footer -->
<g id="twitFooter">
<path d="M34.825 3.75401C33.5276 4.32878 32.1513 4.70587 30.7421 4.87272C32.2265 3.9846 33.3372 2.58708 33.8674 0.940614C32.4722 1.76886 30.9455 2.35209 29.3534 2.66501C28.6883 1.95556 27.8845 1.39026 26.9919 1.00415C26.0994 0.618048 25.137 0.419364 24.1645 0.420414C20.2387 0.420414 17.0554 3.60281 17.0554 7.52951C17.0554 8.08616 17.1184 8.62932 17.2399 9.14997C11.3314 8.85342 6.09339 6.02292 2.587 1.72136C1.95478 2.80634 1.62257 4.03998 1.62444 5.29571C1.62351 6.46617 1.91172 7.61873 2.46345 8.65099C3.01518 9.68325 3.81335 10.5632 4.78704 11.2128C3.65831 11.1769 2.55445 10.8721 1.56729 10.3236C1.56639 10.3533 1.56639 10.3825 1.56639 10.4131C1.56639 13.8565 4.01664 16.7298 7.26834 17.3836C6.22131 17.6671 5.12351 17.7086 4.05804 17.5051C4.96254 20.3289 7.58784 22.3849 10.6987 22.4425C8.18046 24.4187 5.07078 25.4906 1.86969 25.4859C1.29594 25.4859 0.730295 25.4526 0.173645 25.3864C3.42414 27.4749 7.20721 28.5835 11.0708 28.5796C24.1469 28.5796 31.2974 17.7477 31.2974 8.35436C31.2974 8.04656 31.2902 7.73922 31.2767 7.43367C32.6693 6.42832 33.8709 5.18217 34.825 3.75401Z" fill="#CCCCCC"/>

</g>

<g id="skypeFooter">
<path d="M33.8278 22.2324C34.0775 21.089 34.2107 19.9032 34.2107 18.6851C34.2107 9.55771 26.8118 2.15791 17.6836 2.15791C16.7206 2.15791 15.7774 2.24161 14.858 2.40046C13.3322 1.43695 11.5641 0.926643 9.75954 0.928963C4.46709 0.928963 0.174988 5.21926 0.174988 10.514C0.174988 12.2825 0.656038 13.938 1.49304 15.3596C1.27012 16.4542 1.15795 17.5684 1.15824 18.6855C1.15824 27.8124 8.55624 35.2118 17.6836 35.2118C18.7181 35.2118 19.7288 35.115 20.7116 34.935C22.1041 35.6826 23.6604 36.073 25.2409 36.0713C30.5342 36.0713 34.8254 31.7823 34.8254 26.4876C34.827 25.0111 34.4855 23.5544 33.8278 22.2324ZM26.1611 26.5839C25.3957 27.6644 24.2657 28.5221 22.8032 29.13C21.3529 29.7339 19.6168 30.0395 17.6377 30.0395C15.2653 30.0395 13.2749 29.6201 11.7215 28.7966C10.6114 28.1954 9.69564 27.3845 9.00084 26.3819C8.29839 25.3698 7.94154 24.3645 7.94154 23.3957C7.94154 22.7913 8.17464 22.2662 8.63184 21.8364C9.08454 21.4103 9.66414 21.1934 10.3567 21.1934C10.9241 21.1934 11.4146 21.3644 11.812 21.7001C12.1922 22.0232 12.5189 22.4993 12.7799 23.1167C13.0733 23.7863 13.3933 24.3533 13.7303 24.7997C14.0534 25.2267 14.521 25.589 15.1168 25.8702C15.7148 26.1542 16.523 26.2986 17.5166 26.2986C18.8828 26.2986 20.0038 26.0066 20.8448 25.4301C21.6688 24.8681 22.0688 24.194 22.0688 23.3678C22.0688 22.7157 21.8591 22.2023 21.4294 21.8009C20.9803 21.3806 20.3876 21.053 19.6672 20.8289C18.9161 20.5944 17.8951 20.342 16.6342 20.0774C14.9197 19.7102 13.463 19.2746 12.3029 18.7814C11.1181 18.2774 10.1623 17.5781 9.46434 16.7037C8.75514 15.8145 8.39514 14.7003 8.39514 13.3908C8.39514 12.1425 8.77224 11.018 9.51744 10.0464C10.2568 9.08206 11.3363 8.33326 12.7246 7.81936C14.0971 7.31131 15.7288 7.05571 17.5738 7.05571C19.0498 7.05571 20.3476 7.22626 21.4303 7.56196C22.5197 7.90306 23.4377 8.35891 24.16 8.92411C24.8854 9.49201 25.4272 10.0991 25.7651 10.7295C26.1094 11.3667 26.2835 12.0017 26.2835 12.6155C26.2835 13.2059 26.0554 13.7414 25.6049 14.2098C25.1522 14.6801 24.5821 14.9181 23.908 14.9181C23.296 14.9181 22.8167 14.7696 22.4846 14.4758C22.175 14.2022 21.8537 13.7756 21.4987 13.1622C21.086 12.3801 20.5883 11.7627 20.0159 11.3271C19.4602 10.905 18.5314 10.6908 17.257 10.6908C16.0708 10.6908 15.1073 10.928 14.3932 11.3973C13.7033 11.8491 13.369 12.3666 13.369 12.9818C13.369 13.3584 13.4765 13.6725 13.6979 13.943C13.9342 14.231 14.264 14.4807 14.6839 14.6918C15.1181 14.9096 15.565 15.0837 16.0132 15.207C16.474 15.3353 17.243 15.5243 18.301 15.7677C19.637 16.0562 20.8669 16.377 21.9532 16.7249C23.0534 17.0772 24.0052 17.5119 24.7805 18.0168C25.5725 18.5312 26.1994 19.194 26.6453 19.9842C27.0904 20.7785 27.3158 21.7563 27.3158 22.8944C27.3158 24.2561 26.9275 25.4972 26.1611 26.5839Z" fill="#CCCCCC" />

</g>

<g id="inFooter">

<path d="M30.3001 0.300049H2.69174C1.37144 0.300049 0.299988 1.3463 0.299988 2.63465V30.3623C0.299988 31.6525 1.37144 32.7001 2.69174 32.7001H30.3001C31.6213 32.7001 32.7 31.6525 32.7 30.3623V2.63465C32.7 1.3463 31.6213 0.300049 30.3001 0.300049ZM9.90929 27.9093H5.10149V12.4478H9.90929V27.9093ZM7.50539 10.3337C7.13944 10.3337 6.77708 10.2616 6.43901 10.1215C6.10094 9.9814 5.79379 9.77606 5.53511 9.51721C5.27642 9.25836 5.07128 8.95108 4.93141 8.61292C4.79153 8.27476 4.71965 7.91235 4.71989 7.5464C4.71989 6.8077 5.01334 6.09925 5.53568 5.57691C6.05802 5.05457 6.76646 4.76112 7.50516 4.76112C8.24386 4.76112 8.95231 5.05457 9.47465 5.57691C9.99699 6.09925 10.2904 6.8077 10.2904 7.5464C10.2904 8.28525 9.99709 8.99387 9.47485 9.51652C8.95262 10.0392 8.24424 10.3331 7.50539 10.3337ZM27.9075 27.9093H23.1073V20.3907C23.1073 18.597 23.0722 16.2908 20.6094 16.2908C18.1083 16.2908 17.7271 18.2442 17.7271 20.2607V27.9098H12.9234V12.4478H17.5336V14.5592H17.5993C18.241 13.3442 19.8088 12.0621 22.147 12.0621C27.0097 12.0621 27.9079 15.2634 27.9079 19.4282V27.9093H27.9075Z" fill="#CCCCCC"/>

</g>

<g id="facebookFooter">
<path d="M30.9117 0.300049H2.08829C1.614 0.300049 1.15914 0.488458 0.823769 0.82383C0.488397 1.1592 0.299988 1.61406 0.299988 2.08835V30.9122C0.300107 31.3864 0.48857 31.8412 0.823928 32.1764C1.15929 32.5117 1.61408 32.7001 2.08829 32.7001H17.6056V20.1532H13.3833V15.2634H17.6056V11.6571C17.6056 7.47215 20.1616 5.1938 23.8948 5.1938C25.6831 5.1938 27.2199 5.32655 27.6681 5.3864V9.75995L25.0788 9.7613C23.0484 9.7613 22.6555 10.7261 22.6555 12.1418V15.2639H27.4975L26.8671 20.1536H22.6555V32.7001H30.9121C31.3863 32.6999 31.8411 32.5115 32.1764 32.1761C32.5116 31.8407 32.7 31.386 32.7 30.9118V2.08835C32.7 1.61406 32.5116 1.1592 32.1762 0.82383C31.8408 0.488458 31.386 0.300049 30.9117 0.300049Z" fill="#CCCCCC"/>

</g>
</svg>
